<svg id="visual" viewBox="0 0 900 600" width="900" height="600" xmlns="http://www.w3.org/2000/svg" xmlns:xlink="http://www.w3.org/1999/xlink" version="1.1"><rect x="0" y="0" width="900" height="600" fill="#ffffff"></rect><defs><linearGradient id="grad1_0" x1="33.3%" y1="100%" x2="100%" y2="0%"><stop offset="20%" stop-color="#ffffff" stop-opacity="1"></stop><stop offset="80%" stop-color="#ffffff" stop-opacity="1"></stop></linearGradient></defs><defs><linearGradient id="grad2_0" x1="0%" y1="100%" x2="66.7%" y2="0%"><stop offset="20%" stop-color="#ffffff" stop-opacity="1"></stop><stop offset="80%" stop-color="#ffffff" stop-opacity="1"></stop></linearGradient></defs><g transform="translate(900, 600)"><path d="M-405.6 0C-405.8 -57.6 -406 -115.1 -374.7 -155.2C-343.5 -195.3 -280.7 -217.9 -233.3 -233.3C-186 -248.8 -154.2 -257 -117.9 -284.6C-81.6 -312.1 -40.8 -358.8 0 -405.6L0 0Z" fill="#a400fb"></path></g><g transform="translate(0, 0)"><path d="M405.6 0C400.5 53.6 395.4 107.2 374.7 155.2C354.1 203.3 317.9 245.8 277.2 277.2C236.5 308.6 191.2 328.8 144.3 348.3C97.3 367.8 48.7 386.7 0 405.6L0 0Z" fill="#a400fb"></path></g></svg>