<svg id="visual" viewBox="0 0 900 600" width="900" height="600" xmlns="http://www.w3.org/2000/svg" xmlns:xlink="http://www.w3.org/1999/xlink" version="1.1"><rect x="0" y="0" width="900" height="600" fill="#ffffff"></rect><path d="M0 201L25 182.2C50 163.3 100 125.7 150 134.7C200 143.7 250 199.3 300 208.5C350 217.7 400 180.3 450 172C500 163.7 550 184.3 600 196.3C650 208.3 700 211.7 750 195.2C800 178.7 850 142.3 875 124.2L900 106L900 0L875 0C850 0 800 0 750 0C700 0 650 0 600 0C550 0 500 0 450 0C400 0 350 0 300 0C250 0 200 0 150 0C100 0 50 0 25 0L0 0Z" fill="#6600FF" stroke-linecap="round" stroke-linejoin="miter"></path></svg>