<svg id="visual" viewBox="0 0 900 600" width="900" height="600" xmlns="http://www.w3.org/2000/svg" xmlns:xlink="http://www.w3.org/1999/xlink" version="1.1"><rect x="0" y="0" width="900" height="600" fill="#ffffff"></rect><path d="M0 126L21.5 123.3C43 120.7 86 115.3 128.8 119.2C171.7 123 214.3 136 257.2 134.3C300 132.7 343 116.3 385.8 110.3C428.7 104.3 471.3 108.7 514.2 116.7C557 124.7 600 136.3 642.8 139.5C685.7 142.7 728.3 137.3 771.2 127.5C814 117.7 857 103.3 878.5 96.2L900 89L900 0L878.5 0C857 0 814 0 771.2 0C728.3 0 685.7 0 642.8 0C600 0 557 0 514.2 0C471.3 0 428.7 0 385.8 0C343 0 300 0 257.2 0C214.3 0 171.7 0 128.8 0C86 0 43 0 21.5 0L0 0Z" fill="#6600FF" stroke-linecap="round" stroke-linejoin="miter"></path></svg>